# xmcd
#
# Track frame offsets: 
#        150
#        14267
#        29664
#        44564
#        61942
#        88406
#        105126
#        126956
#        146349
#        159242
#
# Disc length: 2324 seconds
#
# Revision: 0
# Processed by: cddbd v1.5.2PL0 Copyright (c) Steve Scherf et al.
# Submitted via: ExactAudioCopy v0.99pb4
#
DISCID=7f09120a
DTITLE=Hurray For The Riff Raff - Look Out Mama
DYEAR=2012
DGENRE=Americana
TTITLE0=Little Black Star
TTITLE1=Look Out Mama
TTITLE2=Ramblin' Gal
TTITLE3=What's Wrong With Me
TTITLE4=Ode To John and Yoko
TTITLE5=Lake of Fire
TTITLE6=Riley
TTITLE7=Go Out on the Road
TTITLE8=Born to Win (part one)
TTITLE9=Something's Wrong
EXTD=
EXTT0=
EXTT1=
EXTT2=
EXTT3=
EXTT4=
EXTT5=
EXTT6=
EXTT7=
EXTT8=
EXTT9=
PLAYORDER=
